<svg width="20" height="19" viewBox="0 0 20 19" fill="none" xmlns="http://www.w3.org/2000/svg">
<g id="&#240;&#159;&#166;&#134; icon &#34;search&#34;">
<path id="Vector" d="M12.6519 13.8575C11.0764 15.0601 9.09379 15.6275 7.10763 15.4441C5.12146 15.2606 3.28112 14.3401 1.96133 12.8701C0.641533 11.4 -0.0584781 9.49086 0.00382926 7.53139C0.0661366 5.57193 0.886077 3.70946 2.2967 2.32324C3.70732 0.937009 5.60255 0.131247 7.59649 0.0700167C9.59044 0.00878676 11.5332 0.696693 13.0291 1.99367C14.525 3.29064 15.4617 5.09916 15.6484 7.05098C15.8351 9.0028 15.2577 10.9512 14.0339 12.4993L19.2778 17.6333L17.886 19.0011L12.6617 13.8575H12.6519ZM7.849 13.5493C8.62131 13.5493 9.38606 13.3998 10.0996 13.1093C10.8131 12.8189 11.4614 12.3932 12.0075 11.8565C12.5536 11.3199 12.9868 10.6827 13.2824 9.98157C13.5779 9.28038 13.7301 8.52886 13.7301 7.7699C13.7301 7.01094 13.5779 6.25942 13.2824 5.55824C12.9868 4.85705 12.5536 4.21994 12.0075 3.68328C11.4614 3.14662 10.8131 2.72091 10.0996 2.43047C9.38606 2.14003 8.62131 1.99054 7.849 1.99054C6.28925 1.99054 4.79338 2.59944 3.69047 3.68328C2.58756 4.76712 1.96795 6.23712 1.96795 7.7699C1.96795 9.30268 2.58756 10.7727 3.69047 11.8565C4.79338 12.9404 6.28925 13.5493 7.849 13.5493Z" fill="#58412A"/>
</g>
</svg>
